<svg width="18" height="18" xmlns="http://www.w3.org/2000/svg"><title>ico_help</title><g fill="none"><path d="M17.5 9c0-4.694-3.806-8.5-8.5-8.5s-8.5 3.806-8.5 8.5 3.806 8.5 8.5 8.5 8.5-3.806 8.5-8.5z" stroke="#0078BD"/><path d="M8 12h2v2h-2v-2zm.758-8c1 0 1.831.239 2.493.717.662.478.992 1.186.992 2.124 0 .575-.144 1.06-.431 1.454-.168.239-.491.544-.969.916l-.471.365c-.257.199-.268.431-.352.697-.053.168-.091.357-.096.711h-1.933c.027-.748.088-1.193.203-1.478.115-.285.412-.614.89-.986l.485-.378c.159-.119.288-.25.385-.392.177-.243.266-.511.266-.803 0-.336-.098-.643-.295-.919-.197-.277-.557-.415-1.079-.415-.513 0-.877.17-1.092.511-.215.341-.254.456-.254.823h-1.918c.053-1.261.425-1.916 1.253-2.443.522-.336 1.164-.505 1.925-.505z" fill="#0078BD"/></g></svg>